<?xml version="1.0" standalone="no"?>
<!DOCTYPE svg PUBLIC "-//W3C//DTD SVG 20010904//EN"
 "http://www.w3.org/TR/2001/REC-SVG-20010904/DTD/svg10.dtd">
<svg version="1.0" xmlns="http://www.w3.org/2000/svg"
 width="512.000000pt" height="512.000000pt" viewBox="0 0 512.000000 512.000000"
 preserveAspectRatio="xMidYMid meet">

<g transform="translate(0.000000,512.000000) scale(0.100000,-0.100000)"
fill="#000000" stroke="none">
<path d="M2534 4449 c-11 -6 -576 -408 -1255 -893 -1015 -725 -1238 -889
-1257 -922 -29 -50 -26 -126 6 -172 13 -17 100 -86 195 -153 94 -67 648 -462
1230 -877 583 -414 1072 -758 1089 -764 41 -15 124 -5 156 19 14 10 35 32 46
47 20 27 21 41 24 467 l3 439 1110 0 c1227 0 1152 -4 1205 66 l29 37 0 817 0
817 -28 36 c-55 72 35 67 -1202 67 l-1115 0 0 426 c0 474 1 470 -67 521 -39
30 -131 42 -169 22z"/>
</g>
</svg>
