<?xml version="1.0" standalone="no"?>
<!DOCTYPE svg PUBLIC "-//W3C//DTD SVG 20010904//EN"
 "http://www.w3.org/TR/2001/REC-SVG-20010904/DTD/svg10.dtd">
<svg version="1.0" xmlns="http://www.w3.org/2000/svg"
 width="512.000000pt" height="512.000000pt" viewBox="0 0 512.000000 512.000000"
 preserveAspectRatio="xMidYMid meet">

<g transform="translate(0.000000,512.000000) scale(0.100000,-0.100000)"
fill="#000000" stroke="none">
<path d="M2445 4442 c-44 -29 -74 -65 -85 -103 -6 -20 -10 -208 -10 -446 l0
-413 -1112 0 -1113 0 -40 -23 c-26 -15 -48 -37 -63 -67 l-22 -45 2 -801 3
-801 29 -37 c53 -70 -22 -66 1205 -66 l1110 0 3 -432 c3 -416 4 -434 24 -468
31 -54 87 -82 156 -77 l56 3 1237 885 c705 504 1249 899 1264 918 35 47 37
140 3 188 -13 18 -419 312 -965 699 -1720 1219 -1542 1097 -1601 1101 -38 3
-59 -1 -81 -15z"/>
</g>
</svg>
