<?xml version="1.0" standalone="no"?>
<!DOCTYPE svg PUBLIC "-//W3C//DTD SVG 20010904//EN"
 "http://www.w3.org/TR/2001/REC-SVG-20010904/DTD/svg10.dtd">
<svg version="1.0" xmlns="http://www.w3.org/2000/svg"
 width="512.000000pt" height="512.000000pt" viewBox="0 0 512.000000 512.000000"
 preserveAspectRatio="xMidYMid meet">

<g transform="translate(0.000000,512.000000) scale(0.100000,-0.100000)"
fill="#000000" stroke="none">
<path d="M1840 3461 c-70 -23 -144 -86 -187 -161 -60 -101 -103 -294 -103
-456 0 -102 14 -128 65 -122 24 3 30 11 45 60 53 173 157 246 294 206 66 -20
129 -92 167 -193 26 -68 39 -90 65 -105 38 -24 48 -25 68 -4 44 43 -17 417
-94 578 -36 77 -100 150 -152 177 -45 23 -129 33 -168 20z"/>
<path d="M3119 3459 c-161 -46 -278 -297 -279 -600 0 -117 10 -139 63 -139 23
0 27 6 42 58 51 178 181 262 313 202 23 -10 56 -34 73 -52 33 -35 89 -142 89
-169 0 -25 36 -65 71 -79 29 -13 33 -12 50 9 23 28 24 70 4 210 -42 288 -131
483 -247 542 -47 24 -128 32 -179 18z"/>
<path d="M3497 1884 c-73 -87 -280 -214 -441 -269 -344 -117 -791 -111 -1097
15 -127 53 -269 161 -317 243 -20 33 -35 34 -63 6 -17 -17 -20 -30 -16 -65 9
-87 85 -163 265 -270 262 -156 539 -222 825 -196 290 26 543 121 754 281 116
89 145 126 151 194 4 50 -9 98 -26 96 -4 0 -20 -16 -35 -35z"/>
</g>
</svg>
